Coordinates
version=1
nRows=6
nColumns=34
inDegrees=yes

Units are S.I. units (second, meters, Newtons, ...)
If the header above contains a line with 'inDegrees', this indicates whether rotational values are in degrees (yes) or radians (no).

endheader
time	pelvis_tilt	pelvis_list	pelvis_rotation	pelvis_tx	pelvis_ty	pelvis_tz	hip_flexion_r	hip_adduction_r	hip_rotation_r	knee_angle_r	ankle_angle_r	subtalar_angle_r	mtp_angle_r	hip_flexion_l	hip_adduction_l	hip_rotation_l	knee_angle_l	ankle_angle_l	subtalar_angle_l	mtp_angle_l	lumbar_extension	lumbar_bending	lumbar_rotation	arm_flex_r	arm_add_r	arm_rot_r	elbow_flex_r	pro_sup_r	arm_flex_l	arm_add_l	arm_rot_l	elbow_flex_l	pro_sup_l
      0.94339620	     -3.12316842	      3.37251787	    194.06882731	     -1.11224370	      1.14503246	     -0.26134628	     20.29733191	      0.80881493	      4.34788931	     19.96934762	      6.47810741	     -4.97906639	      0.00000000	    -12.69468401	      6.65367059	      1.06050366	     12.03297060	     15.64435199	      5.69902891	      0.00000000	     -9.68482229	      2.02895233	    -19.49667595	    -14.54743689	    -11.28189292	    -45.84334887	     34.18055765	    117.42725477	   -348.23628311	    -20.57153232	   -337.71382448	     61.45552453	    118.54665976
      0.96226410	     -3.14795485	      2.96575285	    194.94235038	     -1.14674636	      1.14138965	     -0.24232977	     19.75806541	      2.17313914	      2.58587069	     17.28679063	      6.14493285	     -4.75580707	      0.00000000	    -15.00696865	      6.89789509	      1.04610168	     12.98435333	     15.33735070	      5.82788742	      0.00000000	     -9.27613089	      1.39717156	    -19.80692526	    -15.15911183	    -10.49069584	    -46.11533998	     35.30407565	    117.50082822	   -350.77271144	    -20.82027764	   -340.96747105	     60.24893400	    118.19282311
      0.98113210	     -3.11322774	      2.44489469	    195.83959267	     -1.18117875	      1.13689497	     -0.21897619	     19.22170399	      3.02961337	      0.25631436	     13.73164427	      5.09008993	     -3.91948717	      0.00000000	    -16.88819190	      7.16052002	      0.83879680	     14.69862432	     15.00096276	      6.62845347	      0.00000000	     -8.99582506	      1.10152097	    -19.08685500	    -15.70896989	    -10.76150019	    -47.82186570	     36.14732065	    117.37982249	   -354.39842202	    -21.04401389	   -346.08664245	     59.11929562	    117.69787569
      1.00000000	     -2.94729223	      1.99453750	    197.39680321	     -1.21339744	      1.13095926	     -0.19209126	     19.32150540	      3.80767968	     -1.36680111	     13.34974558	      4.53755894	     -3.85122836	      0.00000000	    -16.20982726	      6.81352717	     -1.02016125	     20.88645353	     15.30500626	      8.62833963	      0.00000000	     -8.93099259	      0.60908702	    -18.20364859	    -15.01763954	    -12.04656456	    -48.16708373	     38.43533504	    117.58600878	   -357.48295028	    -20.66204356	   -351.50683570	     56.44083150	    117.26719534
      1.01886790	     -3.00574635	      2.37883232	    198.88677186	     -1.24397949	      1.13035304	     -0.18150305	     18.83736233	      4.61210554	     -2.04319312	     16.43765011	      5.18694880	     -5.12744845	      0.00000000	    -12.80098751	      4.72327765	     -4.82118581	     33.99023175	     13.19284298	     10.95247546	      0.00000000	     -8.39470669	      1.20138606	    -16.83772746	    -15.17703138	    -13.32267612	    -49.45357837	     40.52420372	    117.57255918	   -360.82431091	    -19.86171597	   -356.08664558	     54.81878016	    116.89765356
      1.03773590	     -3.44618338	      2.89632433	    199.62967140	     -1.27545476	      1.13406448	     -0.16761708	     17.82923136	      5.59090321	     -1.93182830	     19.36145426	      6.51859933	     -6.62485114	      0.00000000	    -10.33067301	      1.88752357	     -6.85234428	     44.98737311	      9.30121196	     11.71945259	      0.00000000	     -8.06619287	      1.86250036	    -15.99374798	    -16.16307242	    -13.86288783	    -50.38944056	     40.45563343	    117.64118086	   -364.72382371	    -19.72167928	   -359.53904817	     56.82584852	    116.76835717
